<svg xmlns="http://www.w3.org/2000/svg" width="24" height="20" viewBox="0 0 24 20">
  <defs>
    <style>
      .cls-1 {
        fill: #fff;
        fill-rule: evenodd;
      }
    </style>
  </defs>
  <path id="_-e-fa-shopping-cart" data-name="-e-fa-shopping-cart" class="cls-1" d="M1198.23,68.177A1.845,1.845,0,1,0,1196.38,70,1.826,1.826,0,0,0,1198.23,68.177Zm12.92,0A1.845,1.845,0,1,0,1209.31,70,1.824,1.824,0,0,0,1211.15,68.177ZM1213,52.728a0.923,0.923,0,0,0-.92-0.909h-17.33c-0.14-.682-0.15-1.818-1.13-1.818h-3.7a0.909,0.909,0,1,0,0,1.818h2.95l2.55,11.686a7.865,7.865,0,0,0-.88,1.945,0.923,0.923,0,0,0,.92.909h14.77a0.909,0.909,0,1,0,0-1.817h-13.27a2.065,2.065,0,0,0,.35-0.908,5.558,5.558,0,0,0-.19-0.994l15.06-1.732A0.927,0.927,0,0,0,1213,60v-7.27Z" transform="translate(-1189 -50)"/>
</svg>
